PathFileType	4	(X/Y/Z)	C:\Users\dbl\Desktop\20210112(1)\20210112\bx_y_0_501.trc
DataRate	CameraRate	NumFrames	NumMarkers	Units	OrigDataRate	OrigDataStartFrame	OrigNumFrames
50.00	50.00	       8	43	mm	50.00	227	       603
Frame#	Time	Top.Head			R.Acromium			L.Acromium			Sternum			R.ASIS			L.ASIS			V.Sacral			R.Thigh.Upper			R.Thigh.Front			R.Thigh.Rear			R.Knee.Lat			R.Knee.Med			R.Shank.Upper			R.Shank.Front			R.Shank.Rear			R.Ankle.Lat			R.Midfoot.Lat			R.Toe.Lat			R.Toe.Tip			R.Toe.Med			R.Ankle.Med			R.Midfoot.Sup			R.Heel			L.Thigh.Upper			L.Thigh.Front			L.Thigh.Rear			L.Knee.Lat			L.Knee.Med			L.Shank.Upper			L.Shank.Front			L.Shank.Rear			L.Ankle.Lat			L.Midfoot.Lat			L.Toe.Lat			L.Toe.Tip			L.Toe.Med			L.Ankle.Med			L.Midfoot.Sup			L.Heel			origin1 front left			origin2 front right			origin 3 back right			origin 4 back leftt			
		X1	Y1	Z1	X2	Y2	Z2	X3	Y3	Z3	X4	Y4	Z4	X5	Y5	Z5	X6	Y6	Z6	X7	Y7	Z7	X8	Y8	Z8	X9	Y9	Z9	X10	Y10	Z10	X11	Y11	Z11	X12	Y12	Z12	X13	Y13	Z13	X14	Y14	Z14	X15	Y15	Z15	X16	Y16	Z16	X17	Y17	Z17	X18	Y18	Z18	X19	Y19	Z19	X20	Y20	Z20	X21	Y21	Z21	X22	Y22	Z22	X23	Y23	Z23	X24	Y24	Z24	X25	Y25	Z25	X26	Y26	Z26	X27	Y27	Z27	X28	Y28	Z28	X29	Y29	Z29	X30	Y30	Z30	X31	Y31	Z31	X32	Y32	Z32	X33	Y33	Z33	X34	Y34	Z34	X35	Y35	Z35	X36	Y36	Z36	X37	Y37	Z37	X38	Y38	Z38	X39	Y39	Z39	X40	Y40	Z40	X41	Y41	Z41	X42	Y42	Z42	X43	Y43	Z43	

227	4.520	-196.86948	103.36629	1556.06665	-421.02856	-72.72472	1364.93713	-440.65894	280.81393	1385.28369	-464.10684	106.16665	1263.59290	-703.50269	0.17440	1022.40027	-700.30017	219.27567	1040.05371	-892.19385	93.46460	1086.33923	-770.54871	-66.84824	862.15063	-692.73767	-6.03677	801.19214	-784.32715	-56.04099	727.90228	-780.08154	-28.13769	610.04309	-752.68738	80.42113	568.28326	-780.20117	-23.81935	564.15771	-722.81616	20.29744	525.02417	-812.38049	-35.41705	481.20218	-770.53668	-8.14942	205.75729	-663.59235	-67.56993	161.98506	-621.86230	-77.48626	158.49849	-560.25861	-36.69703	163.54980	-604.39478	20.71643	166.65451	-723.30951	75.12639	219.43834	-676.93250	54.81929	160.39497	-797.22601	52.60953	174.79651	-763.06952	285.67438	875.24457	-695.97174	221.98662	812.56116	-788.92072	279.32346	710.74408	-805.39569	252.24718	630.43640	-752.94568	146.92310	570.76251	-795.30981	248.23076	570.32251	-733.08990	209.34169	536.19928	-822.63104	259.74487	492.85205	-775.36292	224.72267	202.13203	-667.55542	300.56061	158.97336	-629.58655	306.86725	161.54366	-560.53796	258.23438	165.66266	-595.81396	222.23140	173.45726	-717.32257	155.35439	220.02364	-677.33563	175.58574	160.45581	-798.93427	175.27106	182.31961	-527.97095	304.06042	146.45483	-517.95905	-72.72562	143.15564	-876.01581	-78.62334	141.29091	-882.23981	296.47638	144.84502	
228	4.540	-193.04333	103.32983	1549.57959	-418.28296	-72.95068	1359.63110	-437.70541	280.71194	1380.29675	-462.53091	106.15022	1260.53503	-705.08118	0.07711	1021.58356	-701.76233	219.23575	1039.33643	-893.06818	93.41715	1086.80701	-771.95618	-66.90290	861.98944	-693.95532	-6.05604	801.04553	-785.40643	-56.59792	727.93689	-781.11249	-28.06364	609.83209	-753.51465	80.36690	568.28302	-781.06598	-23.86477	563.99231	-723.56744	20.37538	524.94720	-812.87451	-35.43699	480.99115	-770.57483	-8.22216	205.70764	-663.56921	-67.59034	161.97842	-621.81287	-77.43797	158.47404	-560.20703	-36.62745	163.56339	-604.40826	20.71517	166.64026	-723.36725	75.09536	219.49300	-676.97131	54.81375	160.46906	-797.21368	52.58191	174.78526	-764.46552	285.78708	875.14246	-697.29761	222.06967	812.35126	-790.20453	279.45624	710.65814	-806.34595	252.35046	630.37085	-753.73456	146.96674	570.68549	-796.08600	248.30370	570.16571	-733.82013	209.33081	536.25720	-823.21057	259.84036	492.64069	-775.39490	224.74393	202.08359	-667.50696	300.54285	158.97142	-629.56274	306.86734	161.51437	-560.51471	258.22818	165.59573	-595.70654	222.13118	173.42979	-717.43750	155.42810	220.05945	-677.28448	175.63501	160.53415	-798.93451	175.35318	182.25053	-527.97900	304.04141	146.48441	-517.96667	-72.75786	143.13797	-875.99500	-78.66097	141.26279	-882.30176	296.37787	144.78711	
229	4.560	-189.34204	103.30017	1543.10767	-415.57098	-73.17595	1354.36621	-434.81729	280.61938	1375.29480	-460.99072	106.11385	1257.53564	-706.74738	-0.03831	1020.89423	-703.24011	219.13037	1038.56921	-894.00293	93.37198	1087.35864	-773.35406	-66.99176	861.86475	-695.13300	-6.11164	800.94843	-786.64893	-57.07901	727.81866	-782.15271	-28.05609	609.68689	-754.35736	80.27357	568.30878	-782.04248	-23.89802	563.85083	-724.34906	20.38156	524.86115	-813.32245	-35.44549	480.69574	-770.61963	-8.26447	205.64580	-663.55505	-67.63815	161.98187	-621.76514	-77.40956	158.46120	-560.17407	-36.57139	163.56522	-604.41986	20.71659	166.63092	-723.44305	75.00835	219.52071	-677.00397	54.80650	160.51331	-797.15350	52.55436	174.73314	-765.86389	285.94077	875.02466	-698.66827	222.18204	812.10834	-791.52722	279.49332	710.48975	-807.28235	252.40689	630.27441	-754.56110	147.02739	570.57709	-796.89893	248.29633	569.96967	-734.57697	209.33244	536.28497	-823.75861	259.90649	492.50571	-775.43793	224.74997	202.05174	-667.43060	300.46143	158.96663	-629.55139	306.86316	161.48138	-560.53156	258.23669	165.51373	-595.61896	222.05927	173.40524	-717.58270	155.53581	220.08649	-677.24042	175.71184	160.57576	-798.94568	175.43361	182.25519	-527.98480	304.06143	146.50554	-517.96753	-72.75002	143.09389	-875.99805	-78.67256	141.25696	-882.36945	296.28345	144.71854	
230	4.580	-185.69131	103.23122	1536.63794	-412.92218	-73.30500	1349.10791	-432.01105	280.61432	1370.29858	-459.48636	106.05807	1254.59521	-708.46857	-0.17906	1020.30341	-704.73584	218.95410	1037.74500	-894.92786	93.34366	1087.97290	-774.82019	-67.15927	861.76556	-696.38867	-6.25139	800.94086	-788.11084	-57.37029	727.44305	-783.17407	-28.12053	609.58368	-755.21350	80.15212	568.33862	-783.08850	-23.89140	563.74304	-725.12939	20.27394	524.80603	-813.84082	-35.50128	480.39670	-770.65814	-8.28070	205.60352	-663.54749	-67.69931	162.00140	-621.74896	-77.43746	158.47058	-560.16589	-36.54536	163.54623	-604.41785	20.72226	166.62747	-723.53503	74.87914	219.52718	-677.02185	54.79506	160.52483	-797.02716	52.53490	174.62993	-767.34851	286.01932	874.82800	-700.10284	222.28488	811.82635	-792.87909	279.47504	710.21411	-808.26099	252.35336	630.08240	-755.46289	147.05890	570.45355	-797.79077	248.24252	569.81299	-735.36914	209.34198	536.30109	-824.34595	259.94318	492.41010	-775.47021	224.74864	202.04034	-667.33636	300.34561	158.95239	-629.54156	306.86169	161.44594	-560.54816	258.24756	165.44949	-595.57770	222.04736	173.40804	-717.74408	155.65648	220.12012	-677.22925	175.78067	160.58723	-798.96680	175.50433	182.28804	-527.98883	304.09204	146.49489	-517.95398	-72.72569	143.04520	-876.01495	-78.62805	141.21298	-882.44818	296.21249	144.67258	
231	4.600	-182.09515	103.13126	1530.13123	-410.40961	-73.25861	1343.79321	-429.33862	280.70581	1365.32178	-458.01807	105.98344	1251.71387	-710.21356	-0.35209	1019.78503	-706.25171	218.70050	1036.85571	-895.79517	93.28229	1088.61731	-776.39478	-67.44884	861.64685	-697.79120	-6.46434	800.96973	-789.71881	-57.59297	726.94385	-784.19757	-28.25624	609.47052	-756.10052	80.00811	568.35150	-784.08752	-23.93813	563.71423	-725.88568	20.05914	524.81879	-814.47913	-35.66817	480.16681	-770.69025	-8.29339	205.55507	-663.53479	-67.75514	162.01759	-621.77728	-77.51415	158.49051	-560.17950	-36.53687	163.50708	-604.42035	20.71998	166.62230	-723.65704	74.73835	219.51729	-677.03345	54.76699	160.51451	-796.87573	52.51112	174.50323	-768.91760	285.94864	874.57721	-701.56763	222.31198	811.53967	-794.26080	279.44220	709.83539	-809.31775	252.20854	629.79260	-756.42401	147.04559	570.35468	-798.72479	248.17284	569.73456	-736.18463	209.31488	536.31122	-825.03430	259.96378	492.28091	-775.48724	224.75327	202.04410	-667.25354	300.25427	158.93304	-629.53113	306.86429	161.41148	-560.56104	258.24380	165.39758	-595.58405	222.08363	173.43437	-717.89001	155.76628	220.16383	-677.24420	175.82121	160.59123	-798.99963	175.54758	182.29370	-527.98828	304.10654	146.46025	-517.93994	-72.70911	143.02237	-876.04163	-78.56504	141.12108	-882.51306	296.18805	144.67233	
232	4.620	-178.60712	103.06390	1523.58032	-408.10239	-73.01392	1338.37646	-426.80405	280.81409	1360.35522	-456.58594	105.89047	1248.89209	-711.95404	-0.56347	1019.31671	-707.79041	218.36215	1035.89221	-896.60364	93.12995	1089.27002	-778.01385	-67.86861	861.47443	-699.30316	-6.72445	800.94263	-791.31165	-57.91657	726.58087	-785.24042	-28.46881	609.32806	-757.02264	79.82407	568.32111	-784.90558	-24.16983	563.80652	-726.65015	19.77343	524.91132	-815.21613	-35.94299	479.99887	-770.69653	-8.33824	205.45282	-663.52344	-67.80476	161.99539	-621.83124	-77.59746	158.50650	-560.21259	-36.50686	163.46387	-604.45282	20.69911	166.60693	-723.81458	74.60270	219.48816	-677.06488	54.72514	160.50833	-796.77997	52.45399	174.39751	-770.52673	285.74973	874.33521	-703.03851	222.22719	811.27069	-795.66632	279.42145	709.41199	-810.45245	252.06743	629.47766	-757.43225	146.98572	570.28656	-799.67126	248.08380	569.68787	-737.04761	209.23764	536.29999	-825.82697	259.97540	492.09073	-775.50055	224.77606	202.04701	-667.20355	300.22751	158.90704	-629.52197	306.86783	161.38751	-560.58167	258.21841	165.34235	-595.64276	222.13480	173.44925	-717.98157	155.84756	220.22681	-677.25562	175.85115	160.60362	-799.04242	175.56322	182.25697	-527.98010	304.11536	146.42630	-517.94531	-72.69312	143.03923	-876.07813	-78.54086	141.02611	-882.53851	296.20764	144.71466	
233	4.640	-175.26215	103.07764	1517.02954	-405.97949	-72.65971	1332.91919	-424.36502	280.85190	1355.38953	-455.19012	105.77971	1246.13025	-713.66241	-0.81890	1018.87885	-709.35449	217.93256	1034.84644	-897.35773	92.87292	1089.91675	-779.54572	-68.40814	861.28442	-700.83203	-7.03854	800.82513	-792.66400	-58.33154	726.51990	-786.28149	-28.75762	609.18359	-757.99408	79.59402	568.22430	-785.51190	-24.60074	563.98224	-727.46069	19.45600	525.06390	-816.00977	-36.25072	479.82922	-770.64093	-8.44652	205.28775	-663.53882	-67.85822	161.92218	-621.88092	-77.66055	158.52574	-560.26038	-36.42888	163.43427	-604.50891	20.66951	166.58727	-723.99506	74.45840	219.42714	-677.12573	54.69125	160.52905	-796.78094	52.35062	174.34441	-772.15729	285.48383	874.11560	-704.53021	222.04221	811.00482	-797.09198	279.44467	709.05743	-811.64471	251.99292	629.21014	-758.50665	146.89117	570.20123	-800.66125	247.95921	569.58063	-737.98523	209.14597	536.25201	-826.69287	259.97583	491.86761	-775.52429	224.82002	202.02713	-667.18152	300.25595	158.87158	-629.51031	306.86304	161.37666	-560.60974	258.18430	165.28249	-595.74438	222.17783	173.43388	-718.01990	155.89575	220.31125	-677.22827	175.88077	160.64883	-799.07776	175.55446	182.21173	-527.96722	304.13074	146.41338	-517.97186	-72.65766	143.08342	-876.11572	-78.56219	140.97195	-882.53217	296.24542	144.77322	
234	4.660	-172.07770	103.17020	1510.52856	-403.93481	-72.35728	1327.54150	-421.98843	280.79309	1350.43579	-453.83081	105.65170	1243.42847	-715.30963	-1.12464	1018.45331	-710.94470	217.41084	1033.71594	-898.07300	92.52391	1090.56079	-780.91229	-69.07552	861.17102	-702.29736	-7.40359	800.66272	-793.64929	-58.71647	726.73444	-787.28259	-29.08388	609.04712	-759.01947	79.35039	568.07422	-786.02502	-25.11587	564.11517	-728.29749	19.15260	525.22968	-816.80640	-36.53124	479.62259	-770.52740	-8.61398	205.10112	-663.58313	-67.91661	161.83316	-621.89758	-77.70471	158.54701	-560.31427	-36.31342	163.41661	-604.56213	20.65114	166.57568	-724.18555	74.28626	219.34160	-677.18488	54.68181	160.57742	-796.85486	52.22017	174.34541	-773.84290	285.16113	873.86444	-706.07904	221.77950	810.71777	-798.55774	279.51929	708.84949	-812.85803	251.94414	628.99896	-759.64020	146.77789	570.05426	-801.71161	247.80170	569.37366	-738.97119	209.07562	536.16840	-827.59698	259.95932	491.63895	-775.56799	224.87457	201.96979	-667.17090	300.29379	158.83850	-629.48938	306.84985	161.37447	-560.63062	258.16287	165.22758	-595.85028	222.20203	173.39658	-718.05212	155.92702	220.38750	-677.14673	175.88969	160.75620	-799.07886	175.49315	182.22107	-527.95673	304.13959	146.42799	-518.00189	-72.61721	143.12579	-876.12335	-78.58134	140.96138	-882.52747	296.27771	144.82053	
